<?xml version="1.0" encoding="UTF-8" standalone="no"?>
<!-- Uploaded to: SVG Repo, www.svgrepo.com, Generator: SVG Repo Mixer Tools -->

<svg
   width="800"
   height="800"
   viewBox="0 0 24 24"
   fill="none"
   version="1.1"
   id="svg20"
   sodipodi:docname="eyeoff.svg"
   xmlns:inkscape="http://www.inkscape.org/namespaces/inkscape"
   xmlns:sodipodi="http://sodipodi.sourceforge.net/DTD/sodipodi-0.dtd"
   xmlns="http://www.w3.org/2000/svg"
   xmlns:svg="http://www.w3.org/2000/svg">
  <defs
     id="defs24" />
  <sodipodi:namedview
     id="namedview22"
     pagecolor="#ffffff"
     bordercolor="#000000"
     borderopacity="0.25"
     inkscape:showpageshadow="2"
     inkscape:pageopacity="0.0"
     inkscape:pagecheckerboard="0"
     inkscape:deskcolor="#d1d1d1"
     showgrid="false" />
  <circle
     style="fill:none;fill-opacity:1;stroke:#000000;stroke-width:2.00001;stroke-linecap:round;stroke-linejoin:round;stroke-miterlimit:13.6;stroke-dasharray:none;stroke-opacity:1"
     id="path1009"
     cy="11.998472"
     cx="11.990402"
     r="3.0099113" />
  <path
     fill-rule="evenodd"
     clip-rule="evenodd"
     d="M 8.2349625,4.8207 C 9.3713625,4.32049 10.632562,4 12.000062,4 c 2.85246,0 5.24283,1.39462 7.00188,2.90595 1.76544,1.51681 2.99055,3.23165 3.53425,4.06385 0.41081,0.6287 0.41081,1.4317 0,2.0604 -0.45889,0.7024 -1.40319,2.0335 -2.74807,3.3437 l -1.41432,-1.4143 c 1.17076,-1.1367 2.01482,-2.3065 2.44624,-2.9596 -0.51038,-0.7726 -1.5983,-2.26842 -3.12145,-3.57706 C 16.126042,7.07185 14.184322,6 12.000062,6 c -0.7719,0 -1.5135,0.13385 -2.2192995,0.36658 z M 12.000062,18 c 0.7718,0 1.5134,-0.1339 2.21917,-0.3666 l 1.54587,1.5459 C 14.628702,19.6795 13.367462,20 12.000062,20 9.1475625,20 6.7571625,18.6054 4.9980625,17.0941 c -1.7654,-1.5169 -2.9905,-3.2317 -3.5342,-4.0639 -0.4108,-0.6287 -0.4108,-1.4317 0,-2.0604 0.4589,-0.7024 1.4032,-2.03353 2.7481,-3.34369 l 1.4143,1.41432 c -1.1708,1.13667 -2.0149,2.30647 -2.4463,2.95957 0.5104,0.7726 1.5983,2.2684 3.1215,3.5771 1.5725,1.3511 3.5143,2.4229 5.6985995,2.4229 z"
     fill="#000000"
     id="path18"
     sodipodi:nodetypes="cscccccccsccsccscccccccs"
     style="opacity:1" />
  <path
     fill-rule="evenodd"
     clip-rule="evenodd"
     d="M 15.7651,4.8207 C 14.6287,4.32049 13.3675,4 12,4 9.14754,4 6.75717,5.39462 4.99812,6.90595 3.23268,8.42276 2.00757,10.1376 1.46387,10.9698 c -0.41081,0.6287 -0.41081,1.4317 0,2.0604 0.45889,0.7024 1.40319,2.0335 2.74807,3.3437 L 5.62626,14.9596 C 4.4555,13.8229 3.61144,12.6531 3.18002,12 3.6904,11.2274 4.77832,9.73158 6.30147,8.42294 7.87402,7.07185 9.81574,6 12,6 c 0.7719,0 1.5135,0.13385 2.2193,0.36658 z M 12,18 C 11.2282,18 10.4866,17.8661 9.78083,17.6334 L 8.23496,19.1793 C 9.37136,19.6795 10.6326,20 12,20 c 2.8525,0 5.2429,-1.3946 7.002,-2.9059 1.7654,-1.5169 2.9905,-3.2317 3.5342,-4.0639 0.4108,-0.6287 0.4108,-1.4317 0,-2.0604 C 22.0773,10.2674 21.133,8.93627 19.7881,7.62611 L 18.3738,9.04043 C 19.5446,10.1771 20.3887,11.3469 20.8201,12 20.3097,12.7726 19.2218,14.2684 17.6986,15.5771 16.1261,16.9282 14.1843,18 12,18 Z"
     fill="#000000"
     id="path1222"
     sodipodi:nodetypes="cscccccccsccsccscccccccs"
     style="opacity:1;stroke-width:0.99999;stroke-dasharray:none" />
</svg>
